PathFileType	4	(X/Y/Z)	c:/Users/goper/Files/vsCode/490R/osim_files/C07/C07_Slow_04.trc
DataRate	CameraRate	NumFrames	NumMarkers	Units                	OrigDataRate	OrigDataStartFrame	OrigNumFrames
250.00	250.00	10	36	mm	250.0	3020	4026
                Frame#	Time	LPSIS			LASIS			LTH1			LTH2			LTH3			LTH4			LLFE			LMFE			LSH1			LSH2			LSH3			LSH4			LLMAL			LMMAL			LCAL			LMTP5			LTOE			LMTP1			RPSIS			RASIS			RTH1			RTH2			RTH3			RTH4			RLFE			RMFE			RSH1			RSH2			RSH3			RSH4			RLMAL			RMMAL			RCAL			RMTP1			RTOE			RMTP5		
		X1	Y1	Z1	X2	Y2	Z2	X3	Y3	Z3	X4	Y4	Z4	X5	Y5	Z5	X6	Y6	Z6	X7	Y7	Z7	X8	Y8	Z8	X9	Y9	Z9	X10	Y10	Z10	X11	Y11	Z11	X12	Y12	Z12	X13	Y13	Z13	X14	Y14	Z14	X15	Y15	Z15	X16	Y16	Z16	X17	Y17	Z17	X18	Y18	Z18	X19	Y19	Z19	X20	Y20	Z20	X21	Y21	Z21	X22	Y22	Z22	X23	Y23	Z23	X24	Y24	Z24	X25	Y25	Z25	X26	Y26	Z26	X27	Y27	Z27	X28	Y28	Z28	X29	Y29	Z29	X30	Y30	Z30	X31	Y31	Z31	X32	Y32	Z32	X33	Y33	Z33	X34	Y34	Z34	X35	Y35	Z35	X36	Y36	Z36

3020	12.07600	-819.91217	997.46576	311.28076	-983.88721	969.16461	401.62134	-876.09088	784.52899	444.82498	-871.12054	705.77716	440.79272	-866.43701	631.55115	425.68100	-948.28625	704.38330	419.68594	-817.19696	515.42865	400.93423	-823.65674	501.32132	282.22305	-703.08698	358.01242	407.19052	-667.57178	327.42868	392.05927	-740.36450	344.49216	394.91461	-715.88867	306.31030	386.61673	-576.13373	172.68858	344.90973	-614.97577	179.70338	273.25482	-498.32483	142.17560	291.24188	-646.93402	46.22586	370.33987	-699.31726	47.87128	319.28946	-671.19550	41.65180	264.06528	-825.07037	1001.91907	212.93611	-989.21857	970.12708	146.38455	-969.86957	818.27039	90.97794	-987.63306	741.70758	89.77901	-1004.39496	661.08911	93.24091	-1055.28247	754.91705	126.93890	-1028.24170	489.50925	131.44618	-1019.52722	495.06381	245.45560	-1012.80450	299.61063	126.82576	-1053.79919	260.24026	123.64841	-1071.12939	317.60043	124.22181	-1082.00684	274.26605	128.72008	-1081.47742	90.61089	171.16023	-1113.98682	111.76620	245.57693	-1044.43835	43.95705	225.37607	-1251.54578	55.39652	251.45778	-1276.70972	69.28686	202.17007	-1231.04260	41.54769	147.12036
3021	12.08000	-824.55133	997.78900	311.06372	-988.28650	969.45679	401.33923	-881.25635	784.51282	444.60254	-876.64594	705.74060	440.91229	-872.55206	631.39746	425.96759	-954.10382	704.71173	419.88464	-823.69037	515.32086	401.48172	-830.41779	500.51559	283.33237	-708.02057	359.41919	407.46558	-671.82617	329.32812	391.84235	-745.31482	345.39774	395.58243	-720.44220	307.47110	387.28195	-579.97095	174.81718	344.92920	-618.92694	181.36638	273.68265	-501.64798	146.36562	291.07990	-647.73889	46.64899	370.37534	-700.31879	47.79061	318.98141	-671.68378	41.79630	263.99704	-829.79907	1002.45557	212.75195	-994.04224	970.74298	146.09975	-974.38306	819.04706	90.54221	-991.96594	742.42578	89.10596	-1008.44537	661.76050	92.38387	-1059.37280	755.35516	127.07552	-1031.38342	489.98874	130.77116	-1022.80164	495.58112	245.19136	-1015.00989	299.95850	125.93111	-1055.82434	260.50702	122.97668	-1073.41479	317.73422	123.77608	-1084.01001	274.37955	128.26431	-1082.27234	90.61292	171.20665	-1114.50867	111.68391	245.69415	-1044.62866	44.04577	225.40398	-1251.82361	54.50209	251.76085	-1276.46277	67.93379	202.56544	-1231.34082	41.26160	147.19177
3022	12.08400	-829.05469	998.09692	310.81015	-992.82660	969.93158	401.02072	-886.45111	784.45868	444.44626	-882.29175	705.67328	440.87714	-878.67737	631.24908	426.30362	-959.87518	705.00885	420.12222	-830.37158	515.01068	402.12640	-837.66785	499.89896	284.18533	-713.08124	360.80579	407.89304	-677.03040	330.95981	392.05740	-750.37018	346.27161	396.32779	-725.18793	308.63284	387.93124	-583.49042	177.63165	345.56406	-623.14728	183.01883	274.32635	-505.35684	150.47417	290.97174	-648.57892	47.12506	370.36212	-700.26660	47.66832	319.39874	-672.27991	41.95703	263.92920	-834.46655	1003.03400	212.55722	-998.75140	971.54486	145.85379	-978.81128	819.90381	90.11433	-996.34314	743.30957	88.46714	-1012.49622	662.49615	91.58393	-1063.31091	755.90076	127.01306	-1034.63782	490.40076	130.34293	-1025.39185	496.21643	244.43932	-1017.18115	300.38284	125.01042	-1057.82886	260.69046	122.39287	-1075.68945	317.82693	123.38284	-1086.03137	274.44351	127.88069	-1082.67737	90.66178	171.24240	-1114.81531	111.57655	245.81110	-1044.71704	44.09099	225.41379	-1251.90503	53.77507	252.07799	-1276.57605	67.28309	203.01566	-1231.50781	41.10501	147.32812
3023	12.08800	-833.48694	998.42615	310.63412	-997.31732	970.30872	400.57126	-892.26337	784.73010	444.45590	-888.15820	705.68964	440.93341	-884.85541	631.07800	426.77371	-965.55719	705.33844	420.42337	-836.95929	514.80725	402.85696	-845.25848	499.19461	285.06750	-718.35712	362.25992	408.15793	-682.09479	332.76044	392.29202	-755.49359	347.11465	397.10284	-730.02679	309.79764	388.78745	-587.41260	180.16504	345.95398	-627.29810	184.38615	274.92899	-509.17734	154.91692	290.90994	-649.27216	47.60989	370.28787	-700.71094	47.54272	319.43585	-673.09271	42.23451	263.85678	-838.95148	1003.67505	212.31290	-1003.31952	972.36658	145.53860	-983.27069	820.82886	89.53513	-1000.57501	744.19202	87.72337	-1016.53253	663.29425	90.87978	-1067.36499	756.58899	126.87984	-1037.84265	490.93115	129.94456	-1028.38794	496.91702	243.79448	-1019.21222	300.90390	124.00751	-1059.80396	260.86130	121.88046	-1077.95874	317.95908	123.07832	-1088.02014	274.51608	127.64434	-1083.04175	90.73639	171.32742	-1114.90491	111.46739	245.96771	-1044.73657	44.10653	225.40617	-1252.06299	53.05744	252.49416	-1276.24463	65.84798	203.26610	-1231.61536	41.04004	147.52937
3024	12.09200	-837.85193	998.74634	310.45236	-1001.67047	970.84949	400.11722	-896.89532	784.45459	444.03610	-893.68219	705.60840	441.14154	-891.13403	630.93701	427.22375	-971.27820	705.65942	420.70200	-843.89630	514.41315	403.56638	-852.94952	498.37662	286.05304	-723.83301	363.61411	408.57620	-687.33105	334.72345	392.37918	-761.01556	348.03848	397.99686	-735.09412	310.94357	389.53400	-591.56311	182.75249	346.30725	-632.58649	186.95587	275.52972	-513.18958	159.27657	290.99734	-650.17706	48.30299	370.22662	-701.27051	47.43597	319.55679	-673.82532	42.66286	263.80426	-843.43250	1004.31067	212.03745	-1007.87482	973.22559	145.17836	-987.68384	821.80688	88.98171	-1005.06348	744.82782	86.59634	-1020.54486	664.14642	90.30222	-1070.95398	757.13281	127.46796	-1040.89673	491.53668	129.59735	-1031.28601	497.41153	243.27440	-1021.36627	301.35025	123.12212	-1061.57385	261.13983	121.41721	-1080.13147	318.08209	122.83800	-1089.87891	274.61823	127.46519	-1083.38232	90.77642	171.42056	-1114.91870	111.37482	246.05846	-1044.74500	44.12591	225.42255	-1252.15540	52.36593	252.90430	-1276.67053	65.63367	203.64449	-1231.71594	40.97729	147.71136
3025	12.09600	-842.08484	999.09387	310.19077	-1006.09875	971.25012	399.74921	-902.11688	784.35767	443.86115	-899.61523	705.51624	441.29086	-897.50031	630.74933	427.71494	-977.14050	706.02710	421.01016	-851.10938	514.16858	404.41959	-860.81104	497.56830	286.97198	-729.64532	365.16678	409.05246	-692.85150	336.61386	392.52090	-766.42792	348.79297	398.96237	-740.39789	312.12656	390.45166	-595.92908	185.45882	346.79407	-637.38287	188.83823	276.19803	-517.54962	164.14587	290.98102	-651.01068	48.99167	370.10248	-701.53369	47.66635	319.07263	-674.91156	43.12513	263.83243	-847.87634	1005.00275	211.79561	-1012.47089	974.16882	144.80186	-991.95325	822.73529	88.34167	-1009.15967	745.60144	85.97800	-1024.54431	665.01770	89.85042	-1075.05591	757.97803	127.22222	-1044.04370	492.11606	129.28166	-1034.58264	498.31244	242.86026	-1023.35925	301.79614	122.26658	-1063.35144	261.38293	121.15113	-1082.30835	318.26620	122.73252	-1091.51440	274.78522	127.32738	-1083.72729	90.81795	171.51471	-1115.01721	111.31911	246.18030	-1044.74072	44.16002	225.39919	-1252.28906	51.72713	253.23320	-1276.93066	65.32963	204.03807	-1231.80981	40.89949	147.86583
3026	12.10000	-846.36322	999.48993	309.98267	-1010.29852	971.80457	399.18527	-907.47125	784.33240	443.72012	-905.50873	705.41821	441.48328	-903.95105	630.65430	428.30762	-983.25226	706.44586	421.32861	-858.49640	513.84277	405.19284	-868.28674	496.76068	287.58716	-736.46265	367.55896	409.96078	-698.85614	338.31989	392.95203	-772.57977	350.00333	399.90762	-745.87360	313.29477	391.42130	-600.56000	188.25601	347.15048	-642.28192	190.76292	276.95804	-522.08533	168.97958	291.08063	-652.18890	49.90986	370.14331	-702.28680	47.80357	319.05597	-675.95679	43.72761	263.90457	-852.28564	1005.74963	211.54869	-1016.86926	975.10437	144.29457	-996.19678	823.66437	87.66551	-1013.40082	746.50336	85.39875	-1028.54761	665.86670	89.51567	-1079.18115	758.87042	126.81071	-1046.91443	492.67139	128.97209	-1037.23950	498.81747	242.22073	-1025.32007	302.38852	121.55007	-1065.19202	261.67331	120.94147	-1084.40417	318.41263	122.68158	-1093.19861	274.93051	127.32448	-1084.09473	90.89291	171.58470	-1115.21069	111.36443	246.25301	-1044.76685	44.22122	225.39586	-1252.48169	51.20496	253.50766	-1277.23206	64.92720	204.39203	-1231.91565	40.84246	147.96986
3027	12.10400	-850.60535	999.90430	309.78052	-1014.40125	972.13763	398.61307	-912.95514	784.36426	443.55289	-911.47388	705.40070	441.67603	-910.67493	630.53326	428.84344	-989.30322	706.94208	421.70081	-865.99823	513.55847	406.11679	-877.47772	495.82681	289.09869	-742.68542	369.00711	410.38919	-704.88013	340.14456	393.28555	-778.87360	350.98425	400.79675	-751.76526	314.72055	392.37613	-605.19092	191.16150	347.70865	-647.48053	192.77716	277.65488	-526.76587	174.01788	291.18240	-653.14215	51.03717	369.97821	-702.90216	47.95885	319.02963	-677.08698	44.58816	264.00177	-856.65540	1006.46344	211.26054	-1021.23657	976.03992	143.76471	-1000.49054	824.51593	87.03313	-1017.52728	747.62500	85.24526	-1032.56042	666.65979	89.28865	-1083.38879	759.70850	126.23820	-1049.85815	493.13077	128.70905	-1040.13538	499.49338	241.71643	-1027.43665	302.84888	121.06197	-1066.95508	262.00208	120.63213	-1086.49194	318.64835	122.60523	-1095.10925	275.09918	127.28415	-1084.44238	90.91962	171.61821	-1115.40051	111.40701	246.29173	-1044.76245	44.30225	225.32196	-1252.64392	50.79982	253.73734	-1277.03796	64.21268	204.47533	-1232.01599	40.71658	148.03064
3028	12.10800	-854.72369	1000.35223	309.45795	-1018.74982	972.80005	398.15506	-918.23193	784.34546	443.33939	-917.54401	705.35016	441.85349	-917.24316	630.42145	429.39746	-995.35168	707.41302	422.03525	-873.69885	513.35425	406.84821	-885.76666	494.90976	290.13971	-749.03998	370.34207	410.89813	-710.90649	342.04199	393.53586	-784.98395	351.96268	401.80807	-757.59119	315.98532	393.18716	-610.28656	193.86131	347.89627	-652.74988	194.89136	278.36203	-531.66223	179.19563	291.24924	-654.45294	52.32272	369.99066	-703.95770	48.27600	319.07159	-679.21216	46.26580	263.05701	-860.96997	1007.29480	210.84814	-1025.58313	976.92065	143.19638	-1004.73480	825.37073	86.38727	-1021.75519	748.37610	84.72450	-1036.54724	667.39618	89.15781	-1087.75574	760.52832	125.49297	-1052.85291	493.58200	128.46558	-1042.99878	500.08420	241.12100	-1029.42139	303.46548	120.68443	-1068.65906	262.43140	120.39015	-1088.52820	318.83163	122.53085	-1096.79529	275.30826	127.21624	-1084.71570	90.97641	171.60048	-1115.56702	111.44453	246.28693	-1044.76135	44.37725	225.24374	-1252.75403	50.36040	253.88766	-1277.20569	63.79494	204.65419	-1232.10388	40.65454	148.06364
3029	12.11200	-858.75739	1000.87726	309.06894	-1022.91522	973.17352	397.50720	-923.26050	784.25366	443.24030	-923.43823	705.31122	442.12241	-923.83380	630.27539	430.11066	-1001.36499	707.90344	422.48737	-881.41522	513.04150	407.75839	-894.18011	494.04431	291.16452	-755.53168	371.76495	411.39896	-717.45789	343.77319	394.08438	-791.21661	352.95355	402.67966	-763.55487	317.24863	394.10278	-615.24054	196.88271	348.33853	-657.93268	197.05116	279.11380	-536.65692	184.49716	291.28906	-655.50671	53.90401	369.89072	-705.23779	48.79460	319.12589	-680.74146	47.38167	262.98248	-865.16467	1008.11566	210.34122	-1030.01978	977.87903	142.61157	-1008.94824	826.11761	85.75934	-1025.92102	749.06696	84.24982	-1040.46204	668.08307	89.11100	-1092.05212	761.28888	124.71919	-1055.50781	494.04886	128.16107	-1045.79541	500.73746	240.53761	-1031.20813	304.07535	120.31460	-1070.40991	262.64532	120.34235	-1090.47034	319.08917	122.49643	-1098.29517	275.55847	127.04226	-1084.93640	90.99577	171.55255	-1115.66809	111.43851	246.26494	-1044.72131	44.44266	225.18031	-1252.81201	49.93584	254.02090	-1277.31873	63.38394	204.81441	-1232.16772	40.56802	148.07220
